<?xml version="1.0" encoding="UTF-8"?>
<svg version="1.1" xmlns="http://www.w3.org/2000/svg" width="2000" height="2000">
<path d="M0 0 C660 0 1320 0 2000 0 C2000 660 2000 1320 2000 2000 C1340 2000 680 2000 0 2000 C0 1340 0 680 0 0 Z " fill="#C5FE4C" transform="translate(0,0)"/>
<path d="M0 0 C11.56220045 7.38426247 19.66746778 20.36776828 23.32421875 33.484375 C25.56607293 56.39848456 18.74974684 79.42208659 12.30078125 101.17041016 C10.86101674 106.05625101 9.47249505 110.95641373 8.0793457 115.85571289 C7.06467518 119.42318587 6.04520002 122.98924009 5.0234375 126.5546875 C4.72727539 127.5964917 4.43111328 128.6382959 4.12597656 129.71166992 C3.65375289 131.34475281 3.16889704 132.974432 2.65527344 134.5949707 C1.38652874 138.62888518 1.11220639 142.20177554 1.19921875 146.421875 C1.21726562 147.56527344 1.2353125 148.70867187 1.25390625 149.88671875 C1.27710938 150.74394531 1.3003125 151.60117187 1.32421875 152.484375 C3.99279013 153.81866069 6.12389022 153.66329025 9.109375 153.73046875 C10.86604492 153.77977539 10.86604492 153.77977539 12.65820312 153.83007812 C15.11645903 153.89060093 17.57479501 153.94796559 20.03320312 154.00195312 C33.67794288 154.39691282 45.1359936 156.82926249 55.3984375 166.43359375 C62.80940146 174.32559391 67.86798125 183.72398959 73.03662109 193.140625 C81.61212458 208.75018766 89.80822576 222.55169837 102.84545898 234.84570312 C107.16935482 239.00246988 109.95884236 242.67657265 110.7578125 248.81640625 C110.76858956 258.41876313 109.68475687 265.12663457 103.07421875 272.296875 C95.3620533 279.4310409 85.96425508 281.98464839 75.63671875 281.796875 C63.09655278 280.61384047 52.16600209 271.83419359 44.32421875 262.484375 C36.72134399 252.34720866 30.36439883 241.3765925 24.24487305 230.30175781 C23.53971558 229.03283691 23.53971558 229.03283691 22.8203125 227.73828125 C22.40966553 226.98877197 21.99901855 226.2392627 21.57592773 225.46704102 C20.30789935 223.45852561 19.18587652 221.96228539 17.32421875 220.484375 C11.57198501 220.52474155 8.83136152 222.18445637 4.76171875 226.109375 C4.25632568 226.59229004 3.75093262 227.07520508 3.23022461 227.57275391 C-2.10592425 232.74537693 -7.11653031 238.23694685 -12.15625 243.6953125 C-37.625343 271.21234859 -37.625343 271.21234859 -53.73828125 271.984375 C-61.75796305 271.59531375 -68.06602219 267.91867377 -73.8828125 262.5546875 C-81.34629152 253.93672697 -82.42327394 243.98522527 -81.91552734 233.07617188 C-81.32388909 226.68021294 -79.63489823 220.47345278 -78.0625 214.26171875 C-76.94444921 209.80068415 -76.05379698 205.31600673 -75.23046875 200.79296875 C-73.74886936 192.67934842 -71.97459645 184.64339785 -70.11328125 176.609375 C-69.76899129 175.11426971 -69.42475458 173.61915216 -69.08056641 172.12402344 C-66.27925574 159.98437488 -63.42624903 147.85665206 -60.55078125 135.734375 C-60.33617249 134.82945312 -60.12156372 133.92453125 -59.90045166 132.9921875 C-57.56358843 123.15815484 -55.15308521 113.36048864 -52.48828125 103.609375 C-46.3035567 80.69325073 -42.35130383 57.04540688 -39.67578125 33.484375 C-38.2470975 20.99287457 -35.57608979 9.0646424 -25.67578125 0.484375 C-17.28734383 -5.66714578 -8.82451434 -4.72585561 0 0 Z " fill="#1E1F1E" transform="translate(864.67578125,765.515625)"/>
<path d="M0 0 C12.03092591 9.19783691 19.31463661 22.22486903 26.24267578 35.3996582 C33.83286022 49.81601359 42.70773913 62.5251489 53 75.125 C62.39948236 86.70758794 70.68565741 98.86227041 70.19921875 114.27734375 C68.87817741 123.40362171 63.88354314 131.15492126 56.6875 136.8125 C52.04663041 140.1582432 47.42821998 140.51244506 41.8359375 140.33984375 C24.16539732 137.38013789 11.26065361 115.23544023 1.6875 101.8125 C-0.74457545 98.34586279 -3.14059312 94.85558312 -5.51806641 91.35131836 C-9.59094174 85.35415923 -13.87772917 79.54897482 -18.3125 73.8125 C-18.80492187 73.16410156 -19.29734375 72.51570312 -19.8046875 71.84765625 C-22.29334831 68.68659329 -24.60816407 66.43879382 -28.3125 64.8125 C-35.41051049 64.18704194 -39.02154553 67.47905954 -44.3125 71.8125 C-47.66761048 74.84131786 -50.84587845 78.01361937 -54 81.25 C-54.80244141 82.05759766 -55.60488281 82.86519531 -56.43164062 83.69726562 C-60.68157689 88.00271126 -64.77924418 92.3971236 -68.72875977 96.97924805 C-71.07979688 99.70068133 -73.50483346 102.35164645 -75.9375 105 C-76.38867188 105.49435547 -76.83984375 105.98871094 -77.3046875 106.49804688 C-88.89623839 119.13883297 -88.89623839 119.13883297 -97 120.375 C-113.84535181 120.04896093 -131.53824776 102.8656335 -143.83203125 92.8359375 C-148.70012121 88.8648027 -153.64557731 84.99260216 -158.609375 81.14208984 C-160.21894012 79.88554001 -161.81311858 78.60935253 -163.40625 77.33203125 C-168.84836474 72.83896685 -168.84836474 72.83896685 -175.5 71.3125 C-176.428125 71.4775 -177.35625 71.6425 -178.3125 71.8125 C-180.09710965 75.16887594 -181.40295176 78.61203769 -182.6875 82.1875 C-183.01838623 83.10789062 -183.01838623 83.10789062 -183.35595703 84.046875 C-184.84164168 88.25792621 -186.05570011 92.49019525 -187.1875 96.8125 C-189.96701978 106.72500429 -193.89744848 118.42062028 -203.3125 123.8125 C-209.61846701 126.79293217 -216.39033657 126.95692729 -223.0703125 125.0078125 C-231.69947322 121.18142625 -236.2188066 114.64453515 -240.0625 106.25 C-247.09879184 87.94175379 -249.14088795 64.88697568 -242.0625 46.4375 C-238.17066424 37.85057168 -233.18651847 32.30795249 -224.3125 28.8125 C-220.37394537 27.78823192 -216.46392555 26.8927139 -212.47265625 26.09765625 C-203.4617548 23.75935676 -195.84420966 17.15414258 -188.5625 11.625 C-174.68342732 1.08882002 -174.68342732 1.08882002 -165.171875 1.41015625 C-150.60227005 3.46025094 -139.23633336 17.39671092 -130.4453125 28.08203125 C-125.92772168 33.49310115 -122.25990678 37.36029111 -115.0390625 38.1875 C-104.68830492 38.54061753 -98.60523977 36.30070777 -91.0078125 29.50390625 C-89.25278692 27.75292451 -87.70004392 25.91364032 -86.125 24 C-76.12124759 12.33265241 -60.79931154 4.0319417 -46.875 -2.125 C-45.91835449 -2.54869873 -45.91835449 -2.54869873 -44.94238281 -2.98095703 C-29.94245938 -9.34870173 -13.93545743 -9.16245672 0 0 Z " fill="#1E1F1E" transform="translate(1500.3125,887.1875)"/>
<path d="M0 0 C2.02095386 1.68603119 3.83126843 3.44235396 5.63671875 5.35546875 C6.44882813 6.15597656 6.44882813 6.15597656 7.27734375 6.97265625 C18.11138718 18.40859098 21.32655757 36.22419451 21.17504883 51.47607422 C20.74021641 62.16835134 17.21233408 70.71132943 9.7578125 78.43359375 C7.11465774 80.82849641 4.3057542 82.88677381 1.40625 84.95703125 C-1.28221259 87.08168822 -2.86520648 89.29418553 -4.36328125 92.35546875 C-4.61481384 95.01451344 -4.61481384 95.01451344 -3.36328125 97.35546875 C1.1266984 101.72072674 5.72056166 103.45233119 11.875 104.03125 C12.86048828 104.13759766 13.84597656 104.24394531 14.86132812 104.35351562 C16.9071688 104.56185234 18.95408493 104.75990468 21.00195312 104.94726562 C29.05643764 105.84454045 34.33098955 108.13238278 40.13671875 113.79296875 C43.19458456 121.05540005 42.69236869 129.43807626 40.01171875 136.79296875 C35.71642939 145.95425024 28.76316358 151.58795165 19.33984375 155.0859375 C17.85909538 155.58256173 16.37463178 156.06824125 14.88671875 156.54296875 C14.16484375 156.78982422 13.44296875 157.03667969 12.69921875 157.29101562 C1.68991629 160.89983418 -9.2096652 161.69843549 -20.73828125 161.66796875 C-21.95 161.68408203 -23.16171875 161.70019531 -24.41015625 161.71679688 C-35.99540865 161.72297238 -47.29939006 160.20368854 -57.61328125 154.66796875 C-58.28238525 154.31984131 -58.95148926 153.97171387 -59.64086914 153.61303711 C-67.44784713 149.42362826 -73.73492504 144.0933012 -79.86328125 137.73046875 C-85.85707613 131.57726443 -93.84243333 125.8676438 -102.60546875 125.0546875 C-110.76198617 125.02837615 -117.93646233 125.92811774 -125.92578125 127.67578125 C-135.18798568 129.50717167 -143.82099024 128.63229774 -152.0390625 123.7734375 C-156.57411163 120.68960409 -160.68928936 117.44934542 -164.36328125 113.35546875 C-165.20890625 112.42734375 -166.05453125 111.49921875 -166.92578125 110.54296875 C-172.56345933 103.66037753 -174.84030513 96.25243207 -174.78125 87.44140625 C-173.76272305 79.92144092 -169.36874375 72.9356325 -164.36328125 67.35546875 C-161.92578125 65.58984375 -161.92578125 65.58984375 -159.36328125 64.10546875 C-158.51765625 63.6053125 -157.67203125 63.10515625 -156.80078125 62.58984375 C-153.0078692 60.66907419 -149.73790095 60.23622641 -145.51171875 60.1796875 C-144.57714844 60.15583984 -143.64257812 60.13199219 -142.6796875 60.10742188 C-140.74240054 60.06497136 -138.80483863 60.03344383 -136.8671875 60.01367188 C-126.24254053 59.70118226 -118.50269866 56.43002397 -110.8046875 49.10546875 C-106.7105118 44.49378924 -103.62607027 39.3232386 -100.42919922 34.0703125 C-88.52497613 14.91885511 -70.6558446 1.70683973 -48.67578125 -3.89453125 C-32.33770796 -7.69893872 -14.5736826 -10.14135599 0 0 Z " fill="#1E1E1E" transform="translate(1206.36328125,887.64453125)"/>
<path d="M0 0 C7.49865862 4.22948865 13.86384086 10.06350437 16.43847656 18.48608398 C16.94280705 20.99308903 17.09934812 23.41024743 17.2265625 25.96484375 C18.42073992 46.86926701 21.87138904 66.81832227 26.9296875 87.1171875 C38.70223045 135.23547964 37.98095455 184.37540002 13.8671875 228.6171875 C13.38765625 229.514375 12.908125 230.4115625 12.4140625 231.3359375 C2.99624455 248.00655778 -11.550432 266.42306067 -30.1328125 272.6171875 C-37.57577282 273.2792043 -44.36248529 273.78809879 -50.5234375 269.1015625 C-56.61127239 263.48656916 -60.20144679 257.62046515 -60.6328125 249.1796875 C-60.35322121 240.95970371 -55.89821384 236.51789793 -50.8203125 230.4296875 C-25.84901938 200.29049432 -17.19701224 160.86494844 -20.59570312 122.56835938 C-22.12031486 108.89988377 -25.33770466 92.7713169 -34.3203125 81.9921875 C-39.33456778 79.54077381 -44.64543499 79.88041069 -49.94506836 81.45019531 C-52.84018828 82.57365237 -55.67416487 83.78436519 -58.5078125 85.0546875 C-60.43140918 85.88875698 -62.35585569 86.72086991 -64.28125 87.55078125 C-65.53687744 88.1085022 -65.53687744 88.1085022 -66.81787109 88.67749023 C-74.04187323 91.60990789 -82.63654423 92.02931907 -89.8828125 88.9921875 C-100.546071 83.47737388 -107.66768911 76.05532866 -111.43359375 64.53515625 C-113.811769 54.6105925 -111.98002886 46.47504482 -107.1328125 37.6171875 C-101.0959705 28.05630068 -92.22480535 18.82437753 -81.1328125 15.6171875 C-76.48483627 15.09334648 -71.86947095 15.05716716 -67.1953125 15.0546875 C-56.24718409 15.0139015 -46.7891489 14.52914207 -37.4453125 8.3046875 C-36.53136719 7.69625 -35.61742187 7.0878125 -34.67578125 6.4609375 C-31.86954627 4.42630937 -29.27084906 2.27264128 -26.765625 -0.12109375 C-18.78151831 -6.29063074 -8.41207664 -3.8673703 0 0 Z " fill="#1F1F1E" transform="translate(735.1328125,922.3828125)"/>
<path d="M0 0 C14.57281935 9.8634339 23.0910844 24.82945498 27.55078125 41.62890625 C28.63703725 47.46451488 28.83051375 53.28270873 29.0625 59.203125 C29.4907336 69.69601836 31.60227228 79.16476103 38.86328125 87.18359375 C43.72574848 91.23923567 49.68323744 93.50201901 55.53076172 95.78417969 C61.28892942 98.10752854 64.76947055 101.17959645 68.25390625 106.40625 C69.0791748 111.89524549 68.81146077 117.00375709 65.65625 121.7421875 C61.28367418 126.93081507 56.2595056 131.81818906 49.26928711 132.6394043 C38.68350146 133.29184991 29.63796117 132.81135154 20.25390625 127.40625 C19.04347656 126.71982422 19.04347656 126.71982422 17.80859375 126.01953125 C-4.13638666 112.4433993 -12.59758406 86.69832977 -20.30859375 63.46875 C-20.5742514 62.66963196 -20.83990906 61.87051392 -21.11361694 61.04718018 C-21.87501731 58.74348634 -22.62745078 56.43712867 -23.375 54.12890625 C-23.60057587 53.43901108 -23.82615173 52.74911591 -24.05856323 52.03831482 C-25.28803179 48.18223272 -26.18590856 44.41462581 -26.74609375 40.40625 C-50.67725507 53.55153579 -57.63244818 79.01974618 -65.87109375 103.53125 C-70.32172147 116.69983258 -75.68138008 131.86713787 -88.18359375 139.34375 C-95.30989483 142.59963945 -103.8143429 142.88727884 -111.30859375 140.63671875 C-113.27718699 139.70089128 -114.97814345 138.67599984 -116.74609375 137.40625 C-117.63296875 136.82875 -118.51984375 136.25125 -119.43359375 135.65625 C-128.66744403 126.67196324 -130.78096201 114.93870733 -130.98828125 102.55786133 C-131.04765104 84.3072154 -125.88567602 67.74097314 -113.0078125 54.36254883 C-105.65464748 47.15300031 -97.96090683 43.36049745 -88.37109375 40.03125 C-72.56290449 34.50718152 -60.70004633 24.20995899 -50.2265625 11.30078125 C-37.43845104 -3.62203858 -17.78161382 -10.31991243 0 0 Z " fill="#1E1F1E" transform="translate(560.74609375,922.59375)"/>
<path d="M0 0 C12.80421203 6.77031619 19.15549475 18.26999533 24.23828125 31.2890625 C26.4285737 39.06604803 26.5219046 48.6277817 23 56 C22.09060508 57.50974756 21.13391921 58.99236373 20.125 60.4375 C19.69058594 61.09234375 19.25617188 61.7471875 18.80859375 62.421875 C14.48276107 68.1896519 8.46660802 71.80346823 1.31640625 72.84765625 C-7.66305255 73.13410223 -13.31670921 71.19738191 -19.9375 65.125 C-31.73389805 52.7115596 -36.26289479 36.1063208 -36.09375 19.33984375 C-35.62820044 13.16299867 -33.41397027 7.74370257 -28.875 3.4375 C-20.36592907 -2.61413787 -9.78364478 -3.88642193 0 0 Z " fill="#1F1F1E" transform="translate(1012.875,966.5625)"/>
<path d="M0 0 C6.924505 3.31429299 12.87685237 6.73450799 17.13671875 13.28125 C17.636875 14.0340625 18.13703125 14.786875 18.65234375 15.5625 C21.45596795 20.60192577 21.76946387 26.15374983 20.88671875 31.78125 C17.48368343 41.12922203 12.88243386 49.01747345 3.8828125 53.859375 C-3.22358685 56.91888157 -9.01603782 56.42033889 -16.11328125 53.71875 C-23.97986817 50.17729788 -30.30891993 45.32342846 -34.265625 37.50390625 C-36.42755111 30.55983943 -36.57911138 21.97152788 -33.48828125 15.28125 C-32.35546875 13.4765625 -32.35546875 13.4765625 -31.11328125 11.78125 C-30.72398437 11.18054688 -30.3346875 10.57984375 -29.93359375 9.9609375 C-23.11163068 0.63624241 -10.88944839 -4.26287064 0 0 Z " fill="#1F201E" transform="translate(1013.11328125,832.21875)"/>
</svg>
